<svg xmlns="http://www.w3.org/2000/svg" width="939.04" height="137.03" viewBox="0 0 939.04 137.03">
  <g id="Group_13" data-name="Group 13" transform="translate(-752.21 -360.68)">
    <path id="Path_23" data-name="Path 23" d="M839.63,422.42c-.78-13.96-1.69-30.92-1.6-43.35h-.41c-3.46,11.66-7.63,24.33-12.65,38.1l-17.75,48.75h-9.8l-16.37-47.86c-4.79-14.2-8.69-27.09-11.51-38.99h-.35c-.35,12.52-1,29.26-1.97,44.34l-2.68,43.14H752.21l7-100.5h16.58l17.11,48.64c4.14,12.3,7.51,23.37,10.12,33.86h.39c2.64-10.18,6.15-21.25,10.63-33.85l17.93-48.65h16.6l6.23,100.5H842.04Z" fill="#f07850"/>
    <path id="Path_24" data-name="Path 24" d="M874.51,450.73a45.221,45.221,0,0,0,23.19,6.51c13.27,0,21.08-6.93,21.08-17.11,0-9.32-5.45-14.81-19.01-19.89-16.4-5.82-26.58-14.45-26.58-28.51,0-15.64,13-27.25,32.58-27.25,10.2,0,17.79,2.37,22.17,4.86l-3.62,10.64a38.164,38.164,0,0,0-18.98-4.77c-13.8,0-19.02,8.18-19.02,15.03,0,9.33,6.11,13.93,19.99,19.29,17.05,6.69,25.63,14.87,25.63,29.6,0,15.42-11.36,28.98-35.17,28.98-9.72,0-20.31-2.93-25.68-6.56Z" fill="#f07850"/>
    <path id="Path_25" data-name="Path 25" d="M951.19,367.43a173.468,173.468,0,0,1,27.62-2.16c18.59,0,31.92,4.41,40.71,12.62,8.99,8.14,14.23,19.78,14.23,35.96,0,16.48-5.15,29.81-14.46,39.1-9.5,9.36-25.03,14.49-44.5,14.49a208.6,208.6,0,0,1-23.61-1.12V367.43Zm13.04,88.9a93.028,93.028,0,0,0,13.05.61c27.82.07,42.8-15.43,42.8-42.6.16-23.74-13.27-38.72-40.64-38.72a77.67,77.67,0,0,0-15.21,1.32v79.39Z" fill="#36a8de"/>
    <path id="Path_26" data-name="Path 26" d="M1066.25,374.05a7.9,7.9,0,0,1-8.34,8.15,7.823,7.823,0,0,1-7.92-8.15,7.97,7.97,0,0,1,8.16-8.16A7.852,7.852,0,0,1,1066.25,374.05Zm-14.65,92.5V394.44h13.05v72.11Z" fill="#36a8de"/>
    <path id="Path_27" data-name="Path 27" d="M1150.21,394.44c-.36,5.09-.61,10.95-.61,19.73v41.87c0,16.69-3.41,26.7-10.3,33.02-7.08,6.5-17.17,8.65-26.27,8.65-8.72,0-18.22-2.04-24.07-5.94l3.29-10.09a40.571,40.571,0,0,0,21.23,5.77c13.38,0,23.22-7.01,23.22-25.27v-8.04h-.3c-3.94,6.78-11.8,12.15-22.92,12.15-17.98,0-30.75-15.29-30.75-35.27,0-24.45,15.91-38.23,32.56-38.23,12.52,0,19.29,6.44,22.5,12.44h.3l.54-10.8h11.58Zm-13.65,28.36a19.978,19.978,0,0,0-.73-5.86c-2.42-7.64-8.75-13.95-18.42-13.95-12.51,0-21.48,10.58-21.48,27.34,0,14.11,7.28,25.97,21.35,25.97a19.186,19.186,0,0,0,18.24-13.52,23.156,23.156,0,0,0,1.03-6.97V422.8Z" fill="#36a8de"/>
    <path id="Path_28" data-name="Path 28" d="M1187.47,374.05a7.9,7.9,0,0,1-8.34,8.15,7.823,7.823,0,0,1-7.92-8.15,7.97,7.97,0,0,1,8.16-8.16A7.852,7.852,0,0,1,1187.47,374.05Zm-14.65,92.5V394.44h13.05v72.11Z" fill="#36a8de"/>
    <path id="Path_29" data-name="Path 29" d="M1224.94,373.68v20.76h18.84v9.93h-18.84v38.86c0,8.98,2.59,14.06,9.92,14.06a26.171,26.171,0,0,0,7.6-.95l.6,9.96a33.577,33.577,0,0,1-11.72,1.8c-6.03,0-11.03-1.99-14.16-5.55-3.61-3.98-5.09-10.34-5.09-18.81V404.36h-11.17v-9.93h11.17V377.06Z" fill="#36a8de"/>
    <path id="Path_30" data-name="Path 30" d="M1300.03,466.55l-1.16-9.11h-.39c-3.96,5.63-11.74,10.75-22.06,10.75-14.57,0-22.03-10.34-22.03-20.69,0-17.47,15.48-27.06,43.34-26.86v-1.53c0-5.86-1.65-16.71-16.42-16.64a35.055,35.055,0,0,0-18.79,5.38l-2.98-8.72c5.97-3.85,14.7-6.32,23.8-6.32,22.04,0,27.42,15.07,27.42,29.52v26.98a112.675,112.675,0,0,0,1.09,17.26h-11.82Zm-2.04-36.82c-14.19-.3-30.44,2.25-30.44,16.19,0,8.61,5.66,12.56,12.24,12.56a18.042,18.042,0,0,0,17.57-12.08,13.457,13.457,0,0,0,.62-4.13V429.73Z" fill="#36a8de"/>
    <path id="Path_31" data-name="Path 31" d="M1333.4,360.68h13.05V466.55H1333.4Z" fill="#36a8de"/>
    <path id="Path_32" data-name="Path 32" d="M1389.65,377.01h-30.61V366.05h74.42v10.96H1402.7v89.53h-13.05Z" fill="#36a8de"/>
    <path id="Path_33" data-name="Path 33" d="M1510.95,429.8c0,26.71-18.53,38.39-35.86,38.39-19.56,0-34.67-14.25-34.67-37.15,0-24.13,15.87-38.24,35.81-38.24C1496.96,392.8,1510.95,407.84,1510.95,429.8Zm-57.18.84c0,15.82,9.06,27.72,21.86,27.72,12.58,0,21.97-11.75,21.97-28.12,0-12.2-6.15-27.62-21.74-27.62C1460.46,402.62,1453.77,416.97,1453.77,430.64Z" fill="#36a8de"/>
    <path id="Path_34" data-name="Path 34" d="M1594.3,429.8c0,26.71-18.53,38.39-35.86,38.39-19.56,0-34.67-14.25-34.67-37.15,0-24.13,15.87-38.24,35.81-38.24C1580.31,392.8,1594.3,407.84,1594.3,429.8Zm-57.18.84c0,15.82,9.06,27.72,21.86,27.72,12.58,0,21.97-11.75,21.97-28.12,0-12.2-6.15-27.62-21.74-27.62C1543.81,402.62,1537.12,416.97,1537.12,430.64Z" fill="#36a8de"/>
    <path id="Path_35" data-name="Path 35" d="M1612.37,360.68h13.05V466.55h-13.05Z" fill="#36a8de"/>
    <path id="Path_36" data-name="Path 36" d="M1647.2,453.2a35.715,35.715,0,0,0,17.38,5.14c9.58,0,14.01-4.71,14.01-10.74,0-6.31-3.81-9.61-13.4-13.2-13.03-4.72-19.2-11.81-19.16-20.45,0-11.62,9.44-21.14,24.95-21.14a34.846,34.846,0,0,1,17.66,4.44l-3.26,9.54a28.335,28.335,0,0,0-14.79-4.25c-7.74,0-11.95,4.46-11.95,9.9,0,5.97,4.24,8.63,13.69,12.3,12.43,4.63,18.89,10.9,18.92,21.67,0,12.78-9.93,21.73-26.97,21.73a41.093,41.093,0,0,1-20.27-5.03Z" fill="#36a8de"/>
  </g>
</svg>
